<mxfile host="Electron" agent="Mozilla/5.0 (Windows NT 10.0; Win64; x64) AppleWebKit/537.36 (KHTML, like Gecko) draw.io/28.0.6 Chrome/138.0.7204.100 Electron/37.2.3 Safari/537.36" version="28.0.6">
  <diagram name="Page-1" id="bctivEzKXhLrrMliZze6">
    <mxGraphModel dx="287" dy="1751" grid="1" gridSize="10" guides="1" tooltips="1" connect="1" arrows="1" fold="1" page="1" pageScale="1" pageWidth="850" pageHeight="1100" math="0" shadow="0">
      <root>
        <mxCell id="0" />
        <mxCell id="1" parent="0" />
        <mxCell id="bwT0J47kFMqYs3os3hCf-5" style="edgeStyle=orthogonalEdgeStyle;rounded=0;orthogonalLoop=1;jettySize=auto;html=1;exitX=0.5;exitY=1;exitDx=0;exitDy=0;" edge="1" parent="1" source="bwT0J47kFMqYs3os3hCf-4" target="bwT0J47kFMqYs3os3hCf-4">
          <mxGeometry relative="1" as="geometry" />
        </mxCell>
        <mxCell id="bwT0J47kFMqYs3os3hCf-20" value="" style="rounded=0;whiteSpace=wrap;html=1;" vertex="1" parent="1">
          <mxGeometry x="560" y="-760" width="240" height="350" as="geometry" />
        </mxCell>
        <mxCell id="bwT0J47kFMqYs3os3hCf-21" value="CustomStack&amp;lt;E&amp;gt;" style="rounded=0;whiteSpace=wrap;html=1;" vertex="1" parent="1">
          <mxGeometry x="560" y="-760" width="240" height="40" as="geometry" />
        </mxCell>
        <mxCell id="bwT0J47kFMqYs3os3hCf-22" value="- stackList : CustomArrayList&amp;lt;E&amp;gt;" style="rounded=0;whiteSpace=wrap;html=1;" vertex="1" parent="1">
          <mxGeometry x="560" y="-720" width="240" height="20" as="geometry" />
        </mxCell>
        <mxCell id="bwT0J47kFMqYs3os3hCf-24" value="" style="rounded=0;whiteSpace=wrap;html=1;strokeColor=none;" vertex="1" parent="1">
          <mxGeometry x="560" y="-690" width="240" height="280" as="geometry" />
        </mxCell>
        <mxCell id="bwT0J47kFMqYs3os3hCf-4" value="+ push(item: E) : E" style="rounded=0;whiteSpace=wrap;html=1;fillStyle=solid;" vertex="1" parent="1">
          <mxGeometry x="570" y="-650" width="220" height="20" as="geometry" />
        </mxCell>
        <mxCell id="bwT0J47kFMqYs3os3hCf-6" value="+ pop() : syncronized E" style="rounded=0;whiteSpace=wrap;html=1;" vertex="1" parent="1">
          <mxGeometry x="570" y="-620" width="220" height="20" as="geometry" />
        </mxCell>
        <mxCell id="bwT0J47kFMqYs3os3hCf-7" value="+ peek() : E" style="rounded=0;whiteSpace=wrap;html=1;" vertex="1" parent="1">
          <mxGeometry x="570" y="-590" width="220" height="20" as="geometry" />
        </mxCell>
        <mxCell id="bwT0J47kFMqYs3os3hCf-8" value="+ isEmpty() : boolean" style="rounded=0;whiteSpace=wrap;html=1;" vertex="1" parent="1">
          <mxGeometry x="570" y="-560" width="220" height="20" as="geometry" />
        </mxCell>
        <mxCell id="bwT0J47kFMqYs3os3hCf-10" value="+ size() : int" style="rounded=0;whiteSpace=wrap;html=1;" vertex="1" parent="1">
          <mxGeometry x="570" y="-530" width="220" height="20" as="geometry" />
        </mxCell>
        <mxCell id="bwT0J47kFMqYs3os3hCf-11" value="+ clear() : void" style="rounded=0;whiteSpace=wrap;html=1;" vertex="1" parent="1">
          <mxGeometry x="570" y="-500" width="220" height="20" as="geometry" />
        </mxCell>
        <mxCell id="bwT0J47kFMqYs3os3hCf-15" value="- addToPush() : void" style="rounded=0;whiteSpace=wrap;html=1;" vertex="1" parent="1">
          <mxGeometry x="570" y="-470" width="220" height="20" as="geometry" />
        </mxCell>
        <mxCell id="bwT0J47kFMqYs3os3hCf-16" value="- checkIfEmpty() : void" style="rounded=0;whiteSpace=wrap;html=1;" vertex="1" parent="1">
          <mxGeometry x="570" y="-440" width="220" height="20" as="geometry" />
        </mxCell>
        <mxCell id="bwT0J47kFMqYs3os3hCf-26" value="+ CustomStack()" style="rounded=0;whiteSpace=wrap;html=1;" vertex="1" parent="1">
          <mxGeometry x="570" y="-680" width="220" height="20" as="geometry" />
        </mxCell>
        <mxCell id="bwT0J47kFMqYs3os3hCf-28" value="" style="rounded=0;whiteSpace=wrap;html=1;" vertex="1" parent="1">
          <mxGeometry x="240" y="-760" width="240" height="350" as="geometry" />
        </mxCell>
        <mxCell id="bwT0J47kFMqYs3os3hCf-42" value="" style="edgeStyle=orthogonalEdgeStyle;rounded=0;orthogonalLoop=1;jettySize=auto;html=1;" edge="1" parent="1" source="bwT0J47kFMqYs3os3hCf-29" target="bwT0J47kFMqYs3os3hCf-22">
          <mxGeometry relative="1" as="geometry" />
        </mxCell>
        <mxCell id="bwT0J47kFMqYs3os3hCf-29" value="CustomArrayList&amp;lt;T&amp;gt;" style="rounded=0;whiteSpace=wrap;html=1;" vertex="1" parent="1">
          <mxGeometry x="240" y="-760" width="240" height="40" as="geometry" />
        </mxCell>
        <mxCell id="bwT0J47kFMqYs3os3hCf-30" value="- ArrayInput : T[]" style="rounded=0;whiteSpace=wrap;html=1;" vertex="1" parent="1">
          <mxGeometry x="240" y="-720" width="240" height="20" as="geometry" />
        </mxCell>
        <mxCell id="bwT0J47kFMqYs3os3hCf-31" value="-size : int" style="rounded=0;whiteSpace=wrap;html=1;" vertex="1" parent="1">
          <mxGeometry x="240" y="-700" width="240" height="20" as="geometry" />
        </mxCell>
        <mxCell id="bwT0J47kFMqYs3os3hCf-32" value="" style="rounded=0;whiteSpace=wrap;html=1;strokeColor=none;fillStyle=hatch;" vertex="1" parent="1">
          <mxGeometry x="240" y="-670" width="240" height="260" as="geometry" />
        </mxCell>
        <mxCell id="bwT0J47kFMqYs3os3hCf-33" value="+ CustomArrayList()" style="rounded=0;whiteSpace=wrap;html=1;" vertex="1" parent="1">
          <mxGeometry x="250" y="-660" width="220" height="20" as="geometry" />
        </mxCell>
        <mxCell id="bwT0J47kFMqYs3os3hCf-34" value="+ size() : int" style="rounded=0;whiteSpace=wrap;html=1;" vertex="1" parent="1">
          <mxGeometry x="250" y="-630" width="220" height="20" as="geometry" />
        </mxCell>
        <mxCell id="bwT0J47kFMqYs3os3hCf-35" value="+ addElement(value : T) : void" style="rounded=0;whiteSpace=wrap;html=1;" vertex="1" parent="1">
          <mxGeometry x="250" y="-600" width="220" height="20" as="geometry" />
        </mxCell>
        <mxCell id="bwT0J47kFMqYs3os3hCf-36" value="+getElement(index : int) : T" style="rounded=0;whiteSpace=wrap;html=1;" vertex="1" parent="1">
          <mxGeometry x="250" y="-570" width="220" height="20" as="geometry" />
        </mxCell>
        <mxCell id="bwT0J47kFMqYs3os3hCf-37" value="+ setElement(index : int ,value : T) : void" style="rounded=0;whiteSpace=wrap;html=1;" vertex="1" parent="1">
          <mxGeometry x="250" y="-540" width="220" height="20" as="geometry" />
        </mxCell>
        <mxCell id="bwT0J47kFMqYs3os3hCf-38" value="+ removeElement(index : int) : T" style="rounded=0;whiteSpace=wrap;html=1;" vertex="1" parent="1">
          <mxGeometry x="250" y="-510" width="220" height="20" as="geometry" />
        </mxCell>
        <mxCell id="bwT0J47kFMqYs3os3hCf-39" value="- checkIndex(index : int) : void" style="rounded=0;whiteSpace=wrap;html=1;" vertex="1" parent="1">
          <mxGeometry x="250" y="-480" width="220" height="20" as="geometry" />
        </mxCell>
        <mxCell id="bwT0J47kFMqYs3os3hCf-40" value="- resizeArray( i : int) : void" style="rounded=0;whiteSpace=wrap;html=1;" vertex="1" parent="1">
          <mxGeometry x="250" y="-450" width="220" height="20" as="geometry" />
        </mxCell>
      </root>
    </mxGraphModel>
  </diagram>
</mxfile>
